#!OML:ASF I:\golf\golf\golf 2\Subject 1\2002-09-07\Subject1.ASF
:FULLY-SPECIFIED
:DEGREES
245
root -8.24929 17.746 0.405308 -14.7577 74.4225 -36.3297
lowerback 9.02799 -9.78766 -9.12767
upperback 3.36795 -13.6605 3.55669
thorax 1.61443 -7.09655 9.42737
lowerneck -10.6666 15.5587 4.45705
upperneck 18.8889 23.8634 -13.0485
head 9.93317 10.273 -1.99366
rclavicle -5.1684e-014 7.31528e-014
rhumerus 19.7205 -22.0805 -73.9149
rradius 99.6506
rwrist -22.0311
rhand -63.5274 28.3729
rfingers 7.12502
rthumb -35.5031 1.93586
lclavicle -5.1684e-014 7.31528e-014
lhumerus 101.818 -51.9297 47.8394
lradius 28.2135
lwrist -3.99758
lhand -10.4053 5.99899
lfingers 7.12502
lthumb -164.407 -144.61
rfemur -40.3183 0.491143 20.2889
rtibia 30.003
rfoot -6.5037 3.31912
rtoes -4.99758
lfemur -32.6025 12.523 -1.0352
ltibia 31.7925
lfoot -10.8913 4.82533
ltoes -19.6838
246
root -8.25294 17.7532 0.302738 -17.9341 76.3743 -39.5383
lowerback 8.89557 -9.8591 -8.62703
upperback 3.61771 -13.6871 3.93678
thorax 1.93946 -7.13592 9.50717
lowerneck -10.8952 14.9458 4.57407
upperneck 19.1627 23.0963 -13.2932
head 10.0483 9.88303 -2.18896
rclavicle 7.15625e-014 -3.33958e-014
rhumerus 18.8887 -21.6057 -74.5367
rradius 98.943
rwrist -22.8739
rhand -63.7151 31.5987
rfingers 7.12502
rthumb -35.681 5.20448
lclavicle 7.15625e-014 -3.33958e-014
lhumerus 99.9537 -52.7135 49.382
lradius 27.419
lwrist -4.85339
lhand -10.0072 6.55644
lfingers 7.12502
lthumb -164.023 -144.082
rfemur -39.9853 -0.00103345 19.3134
rtibia 29.827
rfoot -6.42321 1.45876
rtoes -6.67741
lfemur -33.6318 10.9844 -1.55692
ltibia 31.7046
lfoot -10.8046 4.19465
ltoes -22.1846
247
root -8.25387 17.7449 0.203025 -22.9055 78.2874 -44.5701
lowerback 8.54838 -9.92319 -8.02348
upperback 3.88863 -13.6871 4.39071
thorax 2.39232 -7.16579 9.56601
lowerneck -11.0013 14.2748 4.75233
upperneck 19.4034 22.254 -13.6272
head 10.1378 9.46549 -2.44803
rclavicle -1.17681e-013 6.83819e-014
rhumerus 17.9121 -21.0396 -75.0124
rradius 98.0439
rwrist -23.5611
rhand -63.968 33.7679
rfingers 7.12502
rthumb -35.9206 7.43188
lclavicle -1.17681e-013 6.83819e-014
lhumerus 97.9162 -53.4521 51.0472
lradius 26.6631
lwrist -5.83506
lhand -9.70431 7.1945
lfingers 7.12502
lthumb -163.732 -143.468
rfemur -39.6334 -0.341666 18.3939
rtibia 29.7217
rfoot -6.33065 -0.553135
rtoes -8.50499
lfemur -34.6666 9.30694 -1.83476
ltibia 31.4942
lfoot -10.5209 3.65679
ltoes -24.9269
248
root -8.25265 17.7752 0.109098 -31.322 80.0745 -52.939
lowerback 8.2026 -9.83744 -7.15484
upperback 4.21967 -13.4696 4.77662
thorax 2.77691 -7.06681 9.42063
lowerneck -11.2312 13.4618 5.39576
upperneck 19.7738 21.1517 -13.9771
head 10.3172 8.94587 -2.81505
rclavicle 6.44062e-014 -2.38542e-014
rhumerus 16.6313 -20.9531 -75.4427
rradius 97.1418
rwrist -24.4401
rhand -64.3701 35.3414
rfingers 7.12502
rthumb -36.3015 9.09952
lclavicle 6.44062e-014 -2.38542e-014
lhumerus 96.557 -54.4932 51.803
lradius 26.0641
lwrist -6.39632
lhand -9.81953 7.68433
lfingers 7.12502
lthumb -163.843 -142.969
rfemur -39.0294 -0.647665 17.705
rtibia 29.6555
rfoot -6.26971 -2.67753
rtoes -9.91567
lfemur -35.3228 7.81423 -1.97379
ltibia 31.2734
lfoot -10.4775 2.35719
ltoes -21.4249
249
root -8.25006 17.7933 0.0147048 -43.0936 81.8472 -64.5653
lowerback 7.86308 -9.63306 -6.40912
upperback 4.53699 -13.1097 5.08012
thorax 3.12374 -6.88742 9.26256
lowerneck -11.5841 12.4699 6.16371
upperneck 20.2364 19.7672 -14.2861
head 10.5162 8.30452 -3.24006
rclavicle -1.55847e-013 7.79236e-014
rhumerus 15.091 -21.2125 -75.7134
rradius 96.4294
rwrist -25.6407
rhand -64.9095 37.439
rfingers 7.12502
rthumb -36.812 11.3262
lclavicle -1.55847e-013 7.79236e-014
lhumerus 95.541 -55.8274 52.2228
lradius 25.4955
lwrist -6.72065
lhand -9.84897 8.2355
lfingers 7.12502
lthumb -163.871 -142.416
rfemur -38.3143 -1.16622 16.7966
rtibia 29.6915
rfoot -6.27984 -4.77089
rtoes -11.3737
lfemur -35.8866 6.18519 -2.31621
ltibia 30.9774
lfoot -10.603 0.875778
ltoes -19.0852
250
root -8.24719 17.8005 -0.0816928 -61.2688 83.2899 -82.5798
lowerback 7.63613 -9.67184 -5.70551
upperback 4.66381 -13.0929 5.55938
thorax 3.33816 -6.87576 9.34265
lowerneck -11.9882 11.5825 6.13336
upperneck 20.8206 18.6448 -14.3564
head 10.6785 7.74546 -3.4304
rclavicle 8.34896e-014 -3.49861e-014
rhumerus 13.5215 -20.3882 -75.6453
rradius 95.545
rwrist -26.9752
rhand -65.7226 41.4391
rfingers 7.12502
rthumb -37.5809 15.527
lclavicle 8.34896e-014 -3.49861e-014
lhumerus 92.9579 -56.753 54.2115
lradius 24.8014
lwrist -7.11088
lhand -9.19547 9.1475
lfingers 7.12502
lthumb -163.242 -141.556
rfemur -37.4988 -1.90291 15.8082
rtibia 29.7339
rfoot -6.17952 -6.74942
rtoes -13.4251
lfemur -36.5669 4.60932 -2.84537
ltibia 30.7285
lfoot -10.7726 -0.860605
ltoes -18.5403
251
root -8.23905 17.8034 -0.17391 -86.7631 83.6481 -107.908
lowerback 7.31411 -9.8931 -4.87542
upperback 4.72235 -13.3159 6.18432
thorax 3.59138 -6.98232 9.49108
lowerneck -12.4151 10.758 5.7471
upperneck 21.4759 17.6875 -14.3643
head 10.8514 7.23868 -3.51915
rclavicle -4.29375e-014 4.77083e-014
rhumerus 11.9771 -18.7152 -75.5526
rradius 94.3411
rwrist -27.6478
rhand -67.2284 39.9639
rfingers 7.12502
rthumb -39.0022 14.4445
lclavicle -4.29375e-014 4.77083e-014
lhumerus 89.7165 -57.2719 56.5914
lradius 24.0988
lwrist -7.16354
lhand -8.9076 10.3247
lfingers 7.12502
lthumb -162.965 -140.402
rfemur -36.6184 -2.74735 15.0059
rtibia 29.9395
rfoot -6.8576 -8.74573
rtoes 10.8434
lfemur -37.2984 3.40651 -3.51464
ltibia 30.2805
lfoot -10.3389 -2.61237
ltoes -17.938
252
root -8.22483 17.8122 -0.259574 -110.641 82.7334 -131.582
lowerback 6.67928 -9.94896 -3.95807
upperback 4.83722 -13.3179 6.64836
thorax 3.96538 -6.96563 9.36678
lowerneck -12.7467 9.7451 5.78211
upperneck 22.1474 16.3563 -14.3185
head 11.0016 6.60754 -3.72555
rclavicle -2.3059e-014 2.38542e-015
rhumerus 10.0266 -17.711 -75.9174
rradius 93.143
rwrist -27.8884
rhand -68.0664 32.7535
rfingers 7.12502
rthumb -39.7917 7.46499
lclavicle -2.3059e-014 2.38542e-015
lhumerus 87.7038 -58.1215 57.2311
lradius 23.6373
lwrist -6.82299
lhand -8.80014 11.2905
lfingers 7.12502
lthumb -162.861 -139.445
rfemur -35.6152 -3.53864 14.1959
rtibia 30.2074
rfoot -6.36199 -10.5541
rtoes -14.7367
lfemur -37.8201 2.33009 -4.26679
ltibia 29.7051
lfoot -9.96212 -4.3904
ltoes -18.0269
